# xmcd
#
# Track frame offsets: 
#        150
#        17299
#        43795
#        67120
#        91338
#        111887
#        130151
#        149937
#        171110
#        209470
#
# Disc length: 3356 seconds
#
# Revision: 3
# Processed by: cddbd v1.5.2PL0 Copyright (c) Steve Scherf et al.
# Submitted via: ExactAudioCopy v1.0b1
#
DISCID=930d1a0a
DTITLE=Five Horse Johnson - Double Down
DYEAR=1997
DGENRE=Southern Rock
TTITLE0=Downstone Blues
TTITLE1=Shine Eyed
TTITLE2=Double Down
TTITLE3=Roll With You
TTITLE4=Wash Your Hands
TTITLE5=Beggin' For Bail
TTITLE6=High Time
TTITLE7=Diamond
TTITLE8=People's Jam
TTITLE9=Submission
EXTD=
EXTT0=
EXTT1=
EXTT2=
EXTT3=
EXTT4=
EXTT5=
EXTT6=
EXTT7=
EXTT8=
EXTT9=
PLAYORDER=
